PathFileType	4	(X/Y/Z)	C:/Users/opensim2020/Desktop/walking_exp_matlab/subject02_walking09_straight_01.trc	
DataRate	CameraRate	NumFrames	NumMarkers	Units	OrigDataRate	OrigDataStartFrame	OrigNumFrames	
100.00	100.00	8	42	mm	100.00	782	293	
Frame#	Time	LFHD			RFHD			LBHD			RBHD			C7			T10			CLAV			STRN			RBAK			LSHO			LUPA			LELB			LFRM			LWRA			LWRB			LFIN			RSHO			RUPA			RELB			RFRM			RWRA			RWRB			RFIN			LASI			RASI			LPSI			RPSI			LTHI			LKNE			LTIB			LANK			LHEE			LTOE			RTHI			RKNE			RTIB			RANK			RHEE			RTOE			*39			*40			*41			
		X1	Y1	Z1	X2	Y2	Z2	X3	Y3	Z3	X4	Y4	Z4	X5	Y5	Z5	X6	Y6	Z6	X7	Y7	Z7	X8	Y8	Z8	X9	Y9	Z9	X10	Y10	Z10	X11	Y11	Z11	X12	Y12	Z12	X13	Y13	Z13	X14	Y14	Z14	X15	Y15	Z15	X16	Y16	Z16	X17	Y17	Z17	X18	Y18	Z18	X19	Y19	Z19	X20	Y20	Z20	X21	Y21	Z21	X22	Y22	Z22	X23	Y23	Z23	X24	Y24	Z24	X25	Y25	Z25	X26	Y26	Z26	X27	Y27	Z27	X28	Y28	Z28	X29	Y29	Z29	X30	Y30	Z30	X31	Y31	Z31	X32	Y32	Z32	X33	Y33	Z33	X34	Y34	Z34	X35	Y35	Z35	X36	Y36	Z36	X37	Y37	Z37	X38	Y38	Z38	X39	Y39	Z39	X40	Y40	Z40	X41	Y41	Z41	X42	Y42	Z42	

257	2.560	-1052.61426	840.87939	1744.37451	-913.17407	812.17432	1717.21973	-1092.95898	730.72412	1649.55371	-957.65759	690.68250	1619.11719	-1028.87219	674.55646	1514.83569	-1027.77502	616.54700	1241.46069	-1029.18335	813.01190	1444.78906	-1026.75903	860.72467	1270.78284	-975.75800	608.48334	1340.46863	-1200.10718	763.58136	1497.56763	-1298.06982	807.63525	1311.95459	-1323.03943	863.82904	1181.85425	-1326.47852	947.79224	1077.14197	-1276.96265	1057.07788	1006.80908	-1316.95630	1025.83496	981.90240	-1313.36633	1080.88916	944.92407	-837.39624	734.52777	1470.90247	-765.99182	674.92212	1285.52954	-751.11932	669.64923	1138.42285	-732.25525	686.05835	1018.44153	-750.87781	725.75311	888.53876	-723.30414	675.64722	888.27246	-720.13391	706.82623	822.27594	-1172.45825	834.66760	976.43854	-915.19550	851.94714	966.33557	-1073.78357	631.45715	1022.36707	-959.56726	632.96570	1019.29968	-1211.36536	715.09491	673.12762	-1178.61951	645.91711	480.48877	-1172.94580	545.14923	312.26355	-1136.25879	498.85989	91.84865	-1082.80420	461.34854	70.24217	-1158.32190	647.47125	36.34351	-832.03674	832.80597	667.08319	-872.06860	906.96777	473.28806	-861.29535	935.02771	289.15225	-887.59882	998.61847	104.18066	-947.93073	997.58795	42.27840	-851.56213	1155.41565	100.14006	-987.18311	711.71021	1786.15161	-3360.36108	2845.35278	1033.96912			 
258	2.570	-1049.70764	849.73932	1743.57874	-910.22980	820.94757	1716.30359	-1090.19080	739.71399	1648.64612	-954.94891	700.05658	1617.98596	-1026.27246	683.68854	1513.85303	-1025.19739	626.07318	1240.31873	-1026.58875	822.21637	1443.97534	-1024.47522	870.29199	1270.09143	-973.12018	617.82251	1339.30347	-1197.46802	772.69800	1496.82947	-1295.30798	816.09930	1311.09717	-1320.44946	871.61407	1180.69360	-1323.85327	955.41968	1075.67676	-1274.68274	1064.86255	1005.54199	-1314.32605	1033.33044	980.49835	-1310.94507	1088.34241	943.42529	-834.80505	743.66205	1469.75525	-763.77112	683.60461	1284.40222	-749.15631	678.06897	1137.30017	-730.33746	694.34320	1017.24310	-748.84698	734.01050	887.41681	-721.45667	683.79846	887.15356	-718.46057	714.91797	821.06537	-1170.48755	843.89746	975.64819	-913.50519	862.16144	965.18268	-1071.14697	641.02698	1021.50775	-956.90106	642.91742	1018.43805	-1210.22253	722.95538	672.75403	-1177.80029	652.72803	480.46701	-1172.68628	549.60632	313.78790	-1136.68323	499.79944	93.94862	-1083.59705	462.13580	72.94453	-1158.53577	647.53174	36.31199	-829.83209	844.64941	666.65051	-870.87665	917.45294	472.50119	-861.42920	943.19348	287.58109	-888.90125	1004.43842	102.15306	-949.90283	1003.24561	40.63643	-851.30127	1160.48181	95.99699	-984.63849	720.29785	1785.12756	-3360.24097	2845.30029	1034.20203			 
259	2.580	-1046.69434	858.52332	1742.80481	-907.13049	829.78760	1715.44275	-1087.28796	748.66534	1647.73145	-952.19440	708.56146	1617.07153	-1023.46588	692.78436	1512.82556	-1022.45239	635.73688	1239.16028	-1023.87592	831.46783	1443.16907	-1021.96613	879.78906	1269.33765	-970.75159	626.95868	1338.27405	-1194.71436	781.80988	1496.07507	-1292.75623	824.56396	1310.38428	-1317.75098	879.14856	1179.45203	-1321.27258	962.59778	1074.32764	-1272.32068	1072.16235	1003.95715	-1311.75183	1040.37439	978.85162	-1308.41321	1095.32263	941.62567	-832.08417	752.95178	1468.65796	-761.34302	692.67926	1283.33716	-746.90149	687.22296	1136.20618	-728.13647	703.04919	1016.15173	-746.68353	742.56787	886.19757	-719.49127	692.25873	886.09363	-716.32318	723.33405	819.89569	-1168.71045	853.34125	974.83264	-911.67853	872.63092	964.18951	-1068.36938	650.86670	1020.59406	-954.25299	653.03186	1017.50653	-1208.94922	731.11536	672.33990	-1177.11096	659.82104	480.54044	-1172.38452	554.19507	315.47635	-1137.16101	500.90073	96.34239	-1084.37878	462.89264	75.95314	-1158.68994	647.64972	36.21164	-827.51044	857.01886	666.34369	-869.25299	927.80121	471.49292	-861.46570	950.49341	285.72269	-890.22369	1008.79388	99.72360	-951.79150	1007.24231	38.55327	-851.07562	1164.08289	91.18758	-981.58539	729.09406	1783.98267	-3357.18970	2845.84009	1034.10608			 
260	2.590	-1043.61230	867.32245	1742.01660	-904.28119	838.55273	1714.45105	-1084.30188	757.65033	1646.78235	-949.35150	717.72327	1615.97693	-1020.51074	701.92651	1511.69104	-1019.57861	645.49164	1237.88098	-1021.05841	840.76654	1442.38745	-1019.43365	889.60260	1268.63696	-967.72760	636.93066	1336.80188	-1191.89319	790.90918	1495.28699	-1289.84998	832.71271	1309.46936	-1314.86047	886.40729	1178.15088	-1318.43713	969.39740	1072.57727	-1269.87158	1078.99182	1002.04486	-1309.06067	1046.90979	976.90997	-1305.89368	1101.72559	939.51001	-829.25049	762.24945	1467.61340	-758.72528	701.70624	1282.17395	-744.60449	696.16528	1135.05005	-725.95715	711.77014	1015.05872	-744.40759	751.49579	885.09833	-717.32996	701.05627	884.94586	-713.86340	731.99408	818.76337	-1166.62585	863.09326	974.09418	-909.67114	883.45856	963.33447	-1065.54834	661.01276	1019.59021	-951.52167	663.37720	1016.42108	-1207.71655	739.54480	671.97235	-1176.33728	667.26898	480.42554	-1172.00012	558.90436	317.35690	-1137.61182	502.03528	98.86234	-1084.77197	463.76047	79.01134	-1158.90808	647.71222	36.22972	-825.26147	869.92346	665.98682	-867.44562	937.84106	470.33566	-861.31195	956.80713	283.56671	-891.67035	1011.92926	96.89214	-953.71063	1009.83496	36.30400	-850.94788	1166.35803	85.78439	-978.46918	737.75537	1783.11804	-3360.38867	2845.32642	1034.09302			 
261	2.600	-1040.53613	876.10510	1741.21069	-900.92505	847.32245	1713.60559	-1081.20251	766.58862	1645.77625	-946.20428	726.35193	1615.02161	-1017.49609	711.11389	1510.54907	-1016.52338	655.32251	1236.51270	-1018.13287	850.07727	1441.58850	-1016.70288	899.40491	1267.95544	-964.57520	646.19501	1335.42200	-1188.91101	799.78839	1494.43176	-1286.64148	840.58099	1308.38318	-1311.94434	893.37811	1176.80676	-1315.49475	975.74506	1070.75061	-1267.37659	1085.30566	999.83868	-1306.37146	1052.94604	974.76801	-1303.24878	1107.56287	937.05566	-826.34247	771.64905	1466.58044	-755.98285	711.59149	1281.36914	-742.16058	705.27856	1134.10706	-723.55664	720.99384	1014.01666	-742.05188	760.59369	884.02942	-715.15741	709.93054	883.79968	-711.62262	740.97308	817.66620	-1164.43738	873.09058	973.35510	-907.40302	894.44196	962.64380	-1062.57642	671.56165	1018.48749	-948.70020	673.96167	1015.20496	-1206.44324	748.25989	671.78534	-1175.87976	674.93262	480.84314	-1171.46973	563.84644	319.42679	-1137.94836	503.30487	101.63724	-1085.10559	465.01373	82.70475	-1159.13831	647.80872	36.27130	-823.06201	883.00690	665.65393	-865.50690	947.43976	469.02353	-861.26569	962.76752	281.35950	-892.90344	1013.90247	94.01092	-954.67230	1010.97272	34.06828	-850.99524	1167.68860	79.75762	-975.38135	746.47852	1781.84558	-3357.01855	2845.95874	1034.38574			 
262	2.610	-1037.30054	884.81335	1740.35144	-897.68378	856.10492	1712.66541	-1078.04736	775.47510	1644.69775	-943.03186	735.33997	1613.64880	-1014.34155	720.15973	1509.32117	-1013.35138	665.34283	1235.04150	-1015.13910	859.43292	1440.74463	-1013.84137	909.33807	1267.30603	-961.41193	655.96179	1333.81128	-1185.80151	808.91595	1493.42554	-1283.55347	848.54480	1307.41162	-1308.91113	900.20361	1175.43457	-1312.80347	981.97052	1068.82080	-1264.78613	1091.20850	997.27283	-1303.62048	1058.52124	972.34735	-1300.53955	1112.88977	934.20752	-823.26666	781.07672	1465.48828	-753.06165	719.58795	1279.89429	-739.69897	714.47955	1132.92200	-721.02893	730.12787	1012.84863	-739.49719	769.86090	882.91821	-712.74512	719.25616	882.88776	-709.19098	750.19678	816.51709	-1162.11023	883.44586	972.67010	-904.91669	905.60785	962.03845	-1059.49292	682.25836	1017.26434	-945.79932	684.68793	1013.92139	-1205.03455	757.16779	671.32782	-1175.13440	682.97687	480.99194	-1170.84619	569.04529	321.59634	-1138.28894	504.71246	104.64196	-1085.62927	466.17770	86.30556	-1159.13062	647.89801	36.13392	-821.04321	895.62494	665.04346	-863.52325	956.48450	467.27399	-861.16187	968.05206	278.85330	-893.76984	1016.29620	91.42300	-955.64337	1011.48914	33.85056	-851.12976	1169.51904	72.54533	-972.11389	755.09387	1780.72498	-3357.03320	2845.99561	1034.25293			 
263	2.620	-1033.99060	893.57361	1739.68530	-894.39740	864.87604	1711.83435	-1074.82495	784.46393	1643.76160	-939.61700	744.61798	1612.54382	-1011.11719	729.11066	1508.12708	-1009.96680	675.24780	1233.83240	-1012.03802	868.83960	1439.96399	-1010.83337	919.29065	1266.82544	-958.23022	665.74664	1332.57947	-1182.68176	817.87280	1492.57336	-1280.53247	856.52069	1306.47705	-1305.84387	906.84497	1173.98828	-1309.85217	987.70770	1066.72913	-1262.11853	1096.64966	994.39252	-1300.82568	1063.68896	969.66650	-1297.82239	1117.74158	931.10089	-820.06110	790.48621	1464.48230	-750.15778	729.73639	1278.97241	-736.87860	723.92450	1131.77930	-718.39618	739.58588	1011.63416	-736.86292	779.45007	881.75024	-710.37634	728.75458	881.45966	-706.74738	759.66638	815.33063	-1159.65552	894.13660	971.93347	-902.38776	916.49365	961.53491	-1056.27734	692.80780	1015.99536	-942.79565	695.50031	1012.58502	-1203.53027	766.43671	670.88599	-1174.28027	691.42883	481.18384	-1170.22388	574.60828	323.93018	-1138.81396	506.29385	107.87236	-1086.37122	467.95572	90.41571	-1159.37415	647.99591	36.08075	-818.76068	907.55341	664.59387	-860.95575	964.76416	465.87280	-861.78638	974.55389	277.11719	-893.11090	1021.04742	91.13670	-955.34595	1014.83655	36.26649	-848.63007	1174.13232	63.99246	-968.62250	763.82935	1779.77966	-3357.17920	2845.92261	1034.18774			 
264	2.630	-1030.46033	902.22552	1739.48682	-890.97003	873.74316	1711.58972	-1071.45728	793.47119	1643.26050	-936.44684	753.46368	1611.89539	-1007.76782	738.05573	1507.25610	-1006.36938	685.11047	1233.37073	-1008.90649	878.25574	1439.56384	-1007.80768	929.10095	1266.72107	-955.19904	675.56177	1331.88037	-1179.65527	826.74371	1491.88159	-1277.29468	864.15527	1305.33630	-1302.71155	913.28558	1172.52100	-1306.81763	993.19092	1064.47083	-1259.42322	1101.65295	991.21375	-1298.06177	1068.38916	966.80414	-1295.03662	1122.04272	927.66895	-816.73578	799.96851	1463.56335	-746.87714	739.27881	1277.91638	-734.00043	733.56726	1130.66418	-715.67773	749.29053	1010.52911	-734.22595	789.29669	880.68829	-707.88611	738.55243	880.32440	-704.22864	769.67902	814.26807	-1157.07324	905.10394	971.23199	-899.68091	927.17273	961.26898	-1053.12781	703.32990	1014.96790	-939.79340	706.50403	1011.68939	-1201.90857	776.19867	670.57861	-1173.30225	700.48456	481.49963	-1169.47974	580.57800	326.53543	-1139.45959	508.39639	111.73420	-1086.83325	469.94839	95.30200	-1159.72876	648.14990	36.10636	-815.99133	918.00421	665.18292	-857.97888	973.50281	465.62360	-860.07037	982.73816	277.20874	-889.48468	1027.33142	91.35331	-952.78760	1017.60077	38.79909	-846.91119	1179.73401	58.08764	-965.13202	772.39618	1779.19043	-3360.32690	2845.27466	1034.20923			 
